<?xml version="1.0" standalone="no"?>
<!DOCTYPE svg PUBLIC "-//W3C//DTD SVG 20010904//EN"
 "http://www.w3.org/TR/2001/REC-SVG-20010904/DTD/svg10.dtd">
<svg version="1.0" xmlns="http://www.w3.org/2000/svg"
 width="512.000000pt" height="512.000000pt" viewBox="0 0 512.000000 512.000000"
 preserveAspectRatio="xMidYMid meet">
<metadata>
Created by potrace 1.11, written by Peter Selinger 2001-2013
</metadata>
<g transform="translate(0.000000,512.000000) scale(0.100000,-0.100000)"
fill="#000000" stroke="none">
<path d="M2453 5084 c9 -15 -53 -23 -83 -12 -12 4 -19 4 -16 -1 3 -5 -1 -12
-10 -15 -8 -3 -12 -2 -9 4 8 13 -8 13 -22 -1 -8 -8 -13 -8 -17 0 -4 6 -13 11
-19 11 -7 0 -6 -4 3 -10 11 -8 5 -9 -22 -7 -23 3 -46 -2 -59 -11 -12 -9 -19
-11 -16 -5 4 6 0 14 -9 17 -8 3 -12 2 -9 -4 3 -6 1 -10 -5 -10 -6 0 -8 -5 -4
-12 4 -7 3 -8 -5 -4 -6 4 -9 11 -7 15 3 4 -1 8 -9 8 -8 0 -14 -3 -13 -6 2 -19
-4 -24 -12 -11 -6 10 -10 11 -10 3 0 -7 -5 -13 -11 -13 -5 0 -7 6 -4 13 4 6 1
5 -7 -3 -16 -19 -53 -27 -42 -9 8 14 -11 5 -40 -20 -18 -15 -18 -15 -12 9 6
21 5 22 -4 7 -6 -9 -15 -15 -20 -12 -5 3 -12 0 -16 -6 -5 -8 -3 -9 6 -4 9 5
11 4 6 -4 -5 -8 -12 -9 -20 -2 -9 7 -19 5 -36 -6 -13 -9 -20 -11 -16 -5 3 6 1
14 -5 18 -8 4 -9 3 -5 -4 4 -7 2 -12 -4 -12 -6 0 -9 -4 -6 -8 3 -5 -5 -8 -17
-8 -14 1 -21 -4 -19 -13 3 -12 0 -12 -12 -1 -13 10 -16 10 -16 0 0 -9 -4 -9
-13 -2 -8 7 -18 6 -31 -4 -10 -7 -23 -11 -29 -7 -6 4 -7 1 -2 -7 6 -10 3 -12
-13 -8 -14 4 -20 2 -15 -5 4 -6 0 -8 -10 -4 -9 3 -18 -1 -22 -11 -5 -13 -8
-14 -14 -3 -7 11 -11 9 -21 -9 -6 -12 -14 -19 -17 -16 -4 3 -15 -1 -25 -11
-10 -9 -18 -11 -18 -5 0 6 5 12 12 14 8 3 6 7 -5 11 -10 4 -16 2 -14 -6 1 -7
-4 -11 -12 -9 -11 2 -12 0 -3 -11 10 -12 7 -14 -15 -13 -19 1 -27 -3 -25 -13
3 -12 1 -12 -14 0 -10 8 -15 9 -11 3 4 -7 0 -15 -9 -18 -10 -4 -13 -2 -9 7 4
6 -3 1 -15 -13 -12 -14 -19 -18 -15 -10 6 13 5 13 -7 0 -7 -8 -20 -15 -28 -15
-9 0 -14 -8 -13 -20 1 -11 0 -14 -3 -7 -7 16 -38 16 -31 -1 3 -8 -3 -14 -14
-14 -12 -1 -17 3 -13 9 4 7 2 8 -5 4 -6 -4 -9 -11 -7 -15 3 -4 -4 -13 -16 -20
-16 -10 -19 -10 -13 1 4 7 -2 2 -13 -11 -12 -15 -25 -22 -35 -18 -11 4 -14 2
-10 -9 3 -8 -1 -14 -11 -14 -9 0 -16 -6 -16 -12 0 -9 -4 -8 -10 2 -9 15 -11
13 -14 -12 -1 -7 -9 -12 -19 -12 -9 1 -17 -2 -17 -7 0 -5 -3 -8 -8 -6 -4 1 -8
-1 -9 -6 -5 -15 -28 -35 -36 -30 -4 3 -19 -7 -33 -22 -13 -14 -28 -24 -33 -20
-5 3 -13 0 -17 -6 -4 -8 -3 -9 4 -5 7 4 12 3 12 -3 0 -5 -9 -13 -20 -16 -12
-4 -17 -11 -13 -18 4 -7 -1 -6 -10 2 -15 12 -17 12 -11 -4 5 -13 4 -16 -4 -11
-7 4 -12 3 -12 -3 0 -5 -12 -16 -27 -23 -16 -8 -27 -21 -27 -31 1 -9 -2 -14
-7 -11 -5 3 -9 1 -9 -5 0 -6 -7 -8 -15 -5 -10 4 -15 0 -15 -10 0 -9 -7 -19
-15 -22 -8 -4 -15 -12 -15 -20 0 -8 -3 -13 -8 -13 -18 3 -32 -2 -32 -12 0 -5
5 -7 12 -3 7 5 8 3 4 -5 -5 -7 -10 -10 -13 -8 -2 3 -18 -8 -35 -23 -20 -19
-28 -33 -22 -42 6 -9 2 -9 -11 2 -11 9 -16 10 -11 3 4 -8 2 -13 -4 -13 -6 0
-8 -5 -4 -12 5 -8 2 -9 -11 -4 -16 6 -16 4 -4 -11 12 -14 12 -16 0 -8 -11 6
-13 4 -8 -9 6 -14 4 -15 -14 -5 -16 8 -20 8 -14 -1 4 -7 -2 -18 -14 -26 -12
-8 -21 -24 -21 -34 0 -10 -10 -27 -23 -37 -13 -10 -22 -24 -19 -31 2 -6 -3
-12 -11 -12 -16 0 -50 -46 -50 -67 0 -7 -3 -11 -5 -8 -3 3 -11 -3 -18 -13 -9
-13 -9 -19 -1 -25 8 -6 4 -7 -9 -4 -13 3 -21 -1 -21 -9 0 -7 5 -11 11 -8 6 3
1 -3 -12 -12 -12 -9 -22 -23 -22 -31 0 -8 -5 -11 -12 -7 -7 5 -8 3 -3 -6 5 -8
2 -17 -7 -24 -8 -6 -20 -22 -27 -35 -11 -19 -11 -22 1 -16 7 3 5 0 -6 -9 -10
-8 -15 -20 -10 -27 4 -8 3 -10 -4 -5 -8 5 -12 -1 -12 -14 0 -17 -4 -21 -17
-15 -14 5 -15 4 -6 -6 10 -10 9 -15 -5 -26 -12 -10 -12 -12 -2 -8 13 6 13 5 0
-7 -8 -7 -15 -17 -16 -23 -3 -23 -17 -55 -25 -55 -5 0 -9 -9 -9 -20 0 -11 -4
-20 -10 -20 -5 0 -10 -11 -10 -25 0 -14 -4 -25 -10 -25 -5 0 -7 -7 -4 -15 4
-10 0 -15 -12 -15 -17 0 -16 -1 2 -16 10 -8 14 -13 8 -10 -18 9 -44 -38 -38
-69 3 -15 1 -24 -5 -21 -5 3 -12 -1 -15 -10 -4 -10 -2 -13 7 -8 9 5 9 4 0 -7
-7 -7 -13 -23 -13 -36 0 -13 -4 -23 -10 -23 -5 0 -10 -5 -10 -11 0 -5 6 -7 13
-4 6 4 4 0 -5 -8 -10 -8 -15 -17 -11 -20 3 -4 0 -13 -7 -22 -10 -12 -10 -15 1
-15 9 -1 8 -4 -4 -11 -15 -9 -16 -13 -5 -27 11 -14 10 -15 -6 -9 -15 6 -17 5
-8 -6 9 -10 8 -17 -1 -26 -9 -11 -9 -14 0 -18 10 -4 10 -7 0 -18 -7 -7 -16
-10 -22 -7 -5 3 -4 -2 4 -11 11 -14 11 -20 0 -34 -12 -15 -12 -16 1 -8 10 6 9
2 -3 -12 -12 -14 -15 -23 -8 -28 6 -3 11 -11 11 -16 0 -6 -4 -8 -9 -5 -5 4 -7
-3 -4 -15 4 -12 0 -25 -8 -30 -12 -7 -12 -9 0 -9 11 0 9 -4 -5 -15 -18 -14
-18 -14 0 -15 15 0 16 -3 6 -15 -12 -15 -18 -100 -8 -111 11 -10 -3 -34 -16
-27 -7 4 -7 2 1 -7 8 -9 9 -19 2 -32 -7 -13 -6 -18 2 -18 9 0 9 -3 0 -14 -9
-11 -9 -15 1 -18 10 -4 10 -8 -1 -22 -11 -13 -12 -22 -2 -42 14 -31 14 -44 0
-24 -8 12 -9 12 -7 -5 1 -11 -1 -26 -5 -33 -5 -7 -5 -12 0 -11 20 3 25 -2 13
-16 -9 -11 -9 -15 -1 -15 9 0 9 -5 1 -20 -8 -15 -8 -20 1 -20 8 0 8 -4 -1 -15
-7 -8 -8 -15 -2 -15 5 0 12 -11 14 -25 3 -13 2 -22 -2 -20 -5 3 -11 -2 -14
-11 -3 -8 -2 -13 3 -10 5 3 11 -8 13 -24 4 -25 2 -28 -10 -17 -13 10 -14 9 -2
-10 8 -12 19 -19 25 -15 5 3 4 -2 -4 -11 -11 -14 -11 -17 0 -17 11 0 11 -2 -1
-10 -8 -5 -10 -10 -4 -10 7 0 14 -7 17 -14 4 -11 1 -13 -11 -9 -14 5 -14 3 3
-17 20 -23 20 -23 0 -16 -17 6 -17 4 4 -18 22 -24 23 -26 6 -32 -16 -7 -16 -8
5 -16 18 -7 20 -11 10 -23 -10 -12 -10 -15 1 -15 11 0 11 -2 -1 -10 -12 -8
-12 -10 5 -10 11 0 16 -4 10 -8 -13 -9 -16 -45 -5 -52 5 -3 10 -20 12 -38 1
-18 6 -32 11 -32 5 0 7 -6 4 -12 -2 -7 3 -19 12 -26 9 -8 11 -11 4 -8 -7 4
-11 -1 -10 -13 0 -11 5 -17 9 -15 4 3 8 -6 8 -20 0 -14 4 -26 9 -26 5 0 8 -12
6 -26 -1 -17 2 -24 10 -20 14 5 15 -11 2 -31 -5 -8 -1 -11 13 -8 17 3 19 1 10
-16 -8 -14 -7 -19 1 -19 6 0 8 -7 5 -16 -3 -8 -2 -12 4 -9 6 3 10 1 10 -5 0
-6 4 -9 9 -6 5 4 7 -4 3 -16 -4 -15 -2 -19 7 -13 10 6 11 3 2 -14 -10 -17 -9
-20 4 -15 11 5 14 2 8 -12 -4 -10 -2 -15 3 -11 6 3 11 -3 11 -14 1 -12 -3 -17
-10 -13 -7 3 2 -7 18 -21 17 -15 25 -24 18 -21 -17 9 -5 -28 17 -52 10 -11 16
-23 13 -26 -4 -3 1 -6 9 -6 16 0 18 -15 5 -36 -4 -7 0 -11 10 -10 10 0 19 -8
21 -19 3 -11 12 -26 21 -33 9 -7 11 -11 4 -8 -7 4 -9 -1 -6 -14 5 -17 8 -18
21 -8 11 9 13 9 9 1 -4 -6 -3 -14 3 -18 5 -3 10 -12 10 -18 0 -7 -4 -6 -10 3
-7 11 -10 12 -10 2 0 -8 9 -16 21 -19 12 -4 18 -11 15 -20 -3 -7 3 -21 14 -30
10 -9 17 -20 15 -24 -3 -4 3 -13 13 -20 15 -13 16 -12 3 4 -12 15 -12 17 0 12
15 -6 39 -50 39 -73 0 -9 6 -12 16 -8 15 6 15 4 3 -11 -8 -9 -9 -14 -3 -10 7
4 14 -2 17 -14 4 -16 11 -20 24 -15 15 5 15 4 -2 -10 -20 -16 -20 -16 4 -9 15
5 21 4 17 -3 -3 -6 -2 -13 4 -17 6 -4 8 -11 5 -16 -3 -5 2 -6 11 -2 12 4 15 3
10 -5 -4 -7 -1 -12 8 -12 9 0 19 -14 25 -32 5 -18 10 -27 10 -20 1 6 5 12 10
12 6 0 8 -9 6 -20 -2 -11 0 -18 6 -15 5 4 9 -1 9 -9 0 -9 7 -16 16 -16 9 0 12
-5 8 -12 -6 -9 -3 -9 9 0 14 12 16 11 12 -7 -2 -12 0 -19 6 -16 5 4 9 2 9 -4
0 -5 9 -13 21 -16 15 -5 17 -10 9 -20 -9 -10 -7 -13 7 -11 10 2 22 -6 28 -18
6 -12 18 -20 27 -20 11 1 15 -5 13 -18 -4 -17 -2 -18 12 -6 12 9 15 9 9 1 -4
-7 -3 -13 2 -13 5 0 12 -9 15 -20 3 -12 14 -20 25 -20 11 0 23 -7 26 -16 3 -9
13 -14 21 -11 10 4 12 1 8 -10 -5 -13 -2 -15 11 -10 10 4 15 3 11 -3 -3 -6 -1
-10 5 -10 6 0 8 -5 5 -10 -3 -6 -2 -10 4 -10 5 0 12 6 14 13 3 6 6 2 6 -9 1
-12 9 -28 19 -35 15 -13 16 -12 3 4 -12 15 -12 17 3 11 9 -3 16 -13 16 -21 0
-8 5 -11 10 -8 6 3 10 1 10 -4 0 -6 5 -11 11 -11 5 0 7 6 3 13 -5 8 -2 8 9 -2
18 -15 23 -26 7 -16 -6 3 -10 1 -10 -4 0 -6 7 -11 16 -11 8 0 29 -13 47 -30
17 -16 33 -27 36 -24 2 2 -4 11 -15 20 -32 26 9 2 47 -27 20 -16 39 -26 43
-22 3 3 6 -4 6 -16 0 -19 2 -20 23 -10 21 12 21 11 7 -6 -9 -11 -10 -16 -2
-11 7 4 25 -2 43 -14 16 -12 33 -19 36 -16 4 3 0 6 -7 6 -7 0 -10 3 -7 7 4 3
16 -2 27 -12 11 -10 23 -15 26 -12 4 3 15 -4 26 -16 11 -12 17 -16 13 -10 -3
7 -1 13 6 13 7 0 9 -8 6 -21 -4 -16 -3 -19 5 -11 11 11 41 5 33 -7 -2 -4 11
-7 30 -6 18 0 33 -4 32 -10 -1 -5 4 -9 11 -8 6 2 12 -2 12 -7 0 -5 3 -9 8 -9
20 3 43 -2 38 -9 -3 -4 9 -7 25 -6 24 2 28 -1 19 -11 -13 -15 5 -16 29 -1 10
7 12 6 6 -4 -6 -10 -3 -12 13 -8 16 5 19 2 14 -11 -5 -14 -3 -14 10 -3 13 10
18 10 24 1 5 -8 3 -9 -6 -4 -8 5 -11 4 -7 -2 4 -6 20 -9 37 -7 17 2 30 -1 30
-7 0 -6 9 -9 20 -6 12 3 27 -2 36 -11 13 -13 17 -13 25 -1 7 11 9 11 9 0 0 -7
6 -11 15 -7 8 3 15 0 15 -6 0 -7 5 -6 15 2 13 11 14 10 9 -4 -7 -19 6 -21 25
-3 11 10 12 9 6 -2 -6 -11 -4 -13 8 -8 12 4 17 1 18 -11 0 -10 3 -12 6 -4 6
16 33 16 33 0 0 -9 4 -8 10 2 6 9 10 11 10 3 0 -7 7 -10 17 -6 9 4 14 2 10 -3
-3 -6 7 -10 26 -9 18 1 38 -4 46 -9 11 -8 13 -8 7 2 -4 6 -2 12 3 12 6 0 11
-5 11 -11 0 -8 4 -8 14 0 10 8 16 9 21 1 9 -14 27 -13 20 3 -4 6 2 2 13 -11
23 -25 41 -30 21 -5 -12 15 -12 16 6 9 25 -11 35 -11 63 -2 17 6 22 3 22 -11
1 -17 1 -17 12 1 11 19 11 19 24 1 8 -10 14 -14 14 -8 0 6 9 13 19 16 13 3 18
1 14 -8 -5 -14 13 -15 34 -2 6 4 14 1 16 -5 3 -7 6 -4 7 7 l1 20 9 -20 c5 -11
9 -14 9 -7 1 6 6 12 12 12 5 0 7 -6 3 -12 -5 -9 -2 -9 9 1 14 11 17 11 17 0 0
-9 3 -10 8 -3 12 19 51 23 67 7 13 -13 15 -12 16 4 0 10 3 13 5 6 4 -8 15 -9
37 -2 40 11 40 11 31 -3 -6 -10 -4 -10 7 -2 18 14 51 26 45 16 -2 -4 10 -7 27
-6 54 2 58 4 51 16 -4 7 -3 8 5 4 17 -11 61 -15 55 -5 -6 10 39 21 109 28 5 1
5 7 2 14 -4 6 1 3 9 -7 13 -17 18 -18 29 -6 9 10 9 12 0 6 -19 -10 -16 -1 4
15 13 11 15 11 9 1 -11 -18 29 -11 74 13 34 18 35 18 20 -1 -15 -18 -14 -18
14 0 19 12 26 13 21 5 -3 -8 0 -6 8 4 10 12 17 15 22 7 5 -8 11 -8 21 1 8 6
14 8 14 3 0 -5 7 0 15 10 8 11 15 16 15 12 0 -5 7 -3 15 4 8 7 12 17 8 23 -3
6 -1 7 6 3 6 -4 9 -11 6 -16 -3 -5 -1 -12 5 -15 6 -4 9 -1 8 6 -2 6 3 14 11
17 9 3 11 0 6 -8 -5 -9 -4 -11 3 -6 7 4 12 14 12 22 0 8 5 14 11 14 5 0 7 -6
3 -12 -6 -10 -5 -10 8 -1 8 7 19 9 24 5 4 -4 3 1 -4 10 -12 15 -10 16 19 11
26 -4 31 -2 25 12 -4 11 -2 14 7 8 21 -13 39 -13 28 1 -7 8 -5 12 10 13 12 1
17 -3 13 -10 -3 -7 4 0 16 16 12 15 27 27 33 27 6 0 2 -7 -9 -15 -18 -14 -18
-14 4 -8 12 3 22 13 23 22 0 10 2 11 6 4 2 -7 9 -13 14 -13 6 0 8 3 6 8 -3 4
1 12 8 19 11 10 15 10 19 0 4 -7 4 -2 2 10 -2 14 0 20 9 17 7 -3 16 0 20 6 5
8 11 8 21 -1 12 -10 16 -8 21 9 4 19 8 20 27 10 20 -10 20 -10 6 7 -14 17 -13
18 12 13 15 -3 27 -2 26 1 -2 19 4 30 18 35 15 6 15 4 3 -11 -13 -17 -13 -17
7 0 11 9 24 14 29 10 4 -5 2 3 -5 16 -8 17 -9 21 0 16 6 -4 23 -4 36 -1 21 6
24 9 13 22 -10 12 -9 13 5 8 9 -3 16 -1 16 5 0 6 7 8 15 5 8 -4 17 1 21 10 3
9 10 14 14 11 5 -3 12 4 15 16 6 17 9 19 17 8 7 -10 8 -8 5 8 -4 20 -3 21 15
12 16 -9 19 -8 13 2 -6 9 -3 11 8 6 12 -4 15 -1 12 14 -2 11 0 17 5 14 5 -3
17 3 27 15 10 11 21 20 26 20 5 0 20 9 34 20 14 11 20 20 12 20 -8 0 -4 7 9
16 12 8 27 12 32 9 6 -3 10 -2 10 4 0 5 -6 12 -12 15 -7 4 -3 4 10 2 12 -2 22
0 22 6 0 5 5 6 12 2 7 -4 8 -3 4 4 -4 6 -14 9 -24 6 -15 -5 -15 -5 1 6 9 6 22
8 27 5 6 -4 10 -3 9 2 -4 23 2 32 19 26 15 -6 15 -5 3 10 -12 15 -12 17 4 10
14 -5 17 -3 12 10 -4 12 -1 15 15 12 11 -3 18 -2 15 2 -4 3 1 12 11 20 16 14
16 14 -1 9 -11 -3 -16 -2 -12 4 3 6 15 10 25 10 10 0 22 5 26 12 5 7 3 8 -7 3
-11 -7 -12 -6 -2 7 7 8 9 19 5 24 -4 4 1 2 11 -5 9 -8 20 -11 24 -7 3 3 1 6
-4 6 -15 0 -9 35 5 36 7 1 17 2 22 3 6 0 10 6 10 12 0 5 -5 7 -12 3 -7 -4 -8
-3 -4 4 4 7 13 12 21 12 8 0 17 5 21 12 5 7 2 9 -7 4 -8 -4 -6 -1 4 7 9 8 17
19 17 26 0 6 5 11 11 11 5 0 7 -5 3 -12 -4 -7 -3 -8 4 -4 6 4 9 12 6 19 -2 7
7 19 21 27 14 7 25 18 25 23 0 6 -10 2 -22 -9 -14 -12 -18 -13 -10 -3 6 9 8
20 4 24 -4 5 -1 5 6 1 7 -4 12 -2 12 5 0 7 3 10 6 6 4 -3 13 0 20 8 17 17 18
29 2 19 -17 -10 12 28 30 39 6 4 12 14 12 21 0 8 7 16 15 20 9 3 12 12 8 22
-5 13 -3 15 7 9 10 -6 12 -4 7 9 -4 9 -3 14 2 11 13 -7 24 31 15 47 -5 8 0 7
11 -2 10 -8 16 -10 12 -3 -5 7 2 21 17 34 21 18 23 25 15 42 -8 14 -8 18 0 13
6 -4 11 0 11 9 0 9 4 14 9 11 5 -4 8 5 7 18 -2 19 1 23 13 18 14 -5 14 -4 1
13 -9 11 -10 16 -2 11 7 -4 15 -1 18 8 3 9 11 13 17 9 6 -3 7 -1 3 6 -5 7 -13
9 -20 4 -7 -4 -4 -1 5 8 13 12 14 20 6 35 -9 16 -9 17 5 6 13 -10 17 -10 22 3
3 8 0 15 -6 15 -7 0 -3 7 8 16 10 8 12 12 4 8 -13 -7 -13 -5 -1 9 7 9 10 17 5
17 -5 0 -3 4 4 9 7 4 14 17 15 29 1 14 5 18 12 12 13 -11 14 17 1 38 -4 8 -3
11 5 10 6 -2 14 3 16 10 3 8 -1 10 -14 6 -16 -6 -16 -5 2 9 11 8 23 13 27 11
8 -5 5 17 -6 35 -6 10 -5 12 2 7 14 -8 27 37 16 55 -5 9 -2 10 9 6 16 -6 16
-4 0 21 -17 27 -17 27 2 12 11 -8 17 -11 13 -6 -4 5 0 23 9 40 10 21 11 27 2
19 -7 -7 -17 -13 -23 -13 -5 0 1 9 14 20 14 12 18 20 10 20 -9 0 -6 8 8 20 17
16 20 25 13 39 -7 12 -6 22 1 29 7 7 8 12 4 12 -5 0 -3 6 3 13 7 9 8 24 2 45
-8 26 -7 30 7 25 11 -5 14 -2 9 10 -4 10 -1 17 6 17 7 0 3 6 -7 12 -18 10 -18
11 5 24 22 12 22 13 4 14 -17 0 -17 2 -5 10 10 6 11 10 3 10 -7 0 -13 5 -13
11 0 5 5 7 12 3 7 -5 9 -2 5 9 -3 9 -1 18 6 21 9 3 9 5 0 5 -7 1 -13 6 -13 12
0 5 4 8 8 5 5 -3 9 1 9 9 0 8 -4 12 -9 9 -4 -3 -5 2 -2 10 3 9 10 13 15 10 5
-3 6 2 3 10 -3 9 -10 13 -15 10 -5 -3 -6 2 -3 10 3 9 9 14 13 11 4 -2 8 2 8
10 0 8 -4 12 -8 9 -4 -2 -10 0 -13 5 -3 5 4 11 16 14 21 6 21 7 5 25 -21 23
-21 32 -1 32 13 0 13 2 -2 18 -17 16 -17 17 1 21 14 2 15 5 4 12 -8 4 -14 24
-14 43 -1 30 1 33 15 23 10 -8 10 -5 -2 9 -10 11 -18 24 -18 27 0 4 8 7 18 7
13 1 11 4 -8 15 -19 11 -21 14 -8 15 11 0 15 5 12 15 -4 8 -9 13 -13 11 -4 -3
-7 4 -7 14 0 15 3 17 15 7 12 -10 13 -9 3 10 -9 16 -9 23 1 26 6 3 1 6 -13 7
-23 1 -23 2 -5 10 11 5 14 9 7 9 -8 1 -10 6 -5 14 11 17 13 38 3 32 -4 -3 -10
2 -14 10 -3 8 -1 15 4 15 6 0 10 5 10 11 0 5 -4 7 -10 4 -7 -4 -7 2 0 19 6 17
6 27 -2 32 -7 5 -8 3 -3 -6 5 -9 4 -11 -4 -6 -6 4 -8 13 -4 19 12 20 9 41 -11
71 -11 16 -15 27 -9 23 6 -4 14 0 17 9 3 8 2 12 -4 9 -6 -3 -10 -1 -10 4 0 6
5 11 11 11 7 0 5 9 -4 24 -12 17 -13 26 -4 35 8 8 7 11 -4 11 -12 0 -14 8 -11
30 3 19 0 30 -8 30 -7 0 -10 8 -7 20 3 11 0 20 -6 21 -7 0 -3 4 8 9 19 8 18 9
-4 9 -20 1 -22 3 -10 17 11 14 10 19 -9 34 -15 13 -19 21 -11 26 8 4 4 12 -12
21 -13 8 -16 12 -7 9 10 -3 20 0 24 6 4 7 3 8 -4 4 -7 -4 -12 -2 -12 4 0 6 -5
8 -12 4 -8 -5 -7 0 2 11 9 11 10 16 3 11 -8 -4 -13 -1 -13 8 0 9 -5 16 -12 16
-9 0 -9 3 0 12 10 10 7 15 -10 26 -15 9 -17 11 -5 8 17 -5 17 -4 -1 19 -13 16
-18 33 -14 48 5 20 4 21 -12 8 -9 -8 -19 -11 -23 -7 -3 3 -1 6 5 6 18 0 14 31
-5 47 -10 8 -12 12 -5 8 6 -3 12 -1 12 4 0 6 -4 11 -10 11 -5 0 -14 10 -21 21
-9 17 -8 20 3 13 7 -4 4 3 -7 15 -16 19 -17 24 -5 32 12 8 11 9 -4 7 -13 -2
-20 3 -21 18 -1 12 -9 30 -18 39 -10 9 -14 21 -11 27 5 7 2 8 -6 3 -10 -6 -12
-3 -7 14 5 19 3 21 -11 9 -9 -7 -14 -8 -10 -4 4 5 3 14 -2 21 -5 6 -11 22 -14
36 -2 14 -10 23 -19 23 -9 -1 -13 4 -10 12 3 8 0 14 -6 14 -6 0 -11 9 -11 20
0 11 -7 20 -15 20 -9 0 -12 6 -8 17 5 12 2 15 -9 10 -12 -4 -14 -1 -11 14 4
14 0 19 -13 19 -16 0 -17 2 -4 10 13 8 12 10 -2 10 -10 0 -18 7 -18 16 0 8 -4
13 -9 10 -5 -3 -12 1 -15 10 -4 10 -2 13 7 8 6 -3 -1 5 -17 18 -20 17 -27 29
-21 39 5 8 5 11 0 7 -4 -4 -14 0 -22 10 -10 12 -13 12 -8 2 3 -8 0 -6 -7 4 -7
11 -21 28 -30 38 -10 10 -18 25 -18 35 0 9 -3 13 -6 10 -8 -7 -44 31 -44 46 0
5 -7 6 -16 3 -14 -6 -15 -4 -4 9 7 9 9 15 4 14 -18 -3 -34 1 -33 9 4 26 -1 34
-16 22 -13 -11 -14 -10 -9 5 5 13 4 16 -4 11 -7 -4 -12 -1 -12 8 0 9 -4 16 -8
16 -15 0 -52 37 -45 44 3 3 -1 6 -11 6 -9 0 -14 4 -11 10 3 6 -1 7 -9 4 -10
-4 -16 -1 -16 9 0 8 -7 18 -16 21 -8 3 -12 10 -9 16 3 5 0 7 -8 4 -8 -3 -17 2
-21 11 -4 11 -12 15 -23 11 -10 -4 -14 -4 -11 0 9 8 -16 34 -32 34 -7 0 -10 6
-7 14 4 10 0 12 -14 9 -11 -3 -19 0 -19 6 0 7 6 9 13 5 7 -4 8 -3 4 2 -5 5
-16 9 -25 9 -11 0 -16 7 -14 20 2 15 1 17 -6 6 -11 -15 -36 -6 -27 10 3 5 -2
6 -11 2 -10 -3 -15 -2 -12 3 3 5 -1 16 -10 24 -14 13 -15 12 -9 -4 6 -16 5
-17 -8 -6 -8 7 -15 20 -16 29 0 11 -2 12 -6 3 -4 -10 -9 -9 -20 5 -8 10 -12
12 -8 6 4 -8 1 -11 -9 -7 -9 3 -14 11 -13 17 1 7 -4 11 -10 10 -7 -2 -13 2
-13 8 0 8 -5 7 -15 -1 -13 -11 -14 -10 -9 5 5 13 4 16 -4 11 -7 -4 -12 -2 -12
4 0 6 -4 8 -10 5 -5 -3 -10 1 -10 11 0 14 -2 15 -17 3 -10 -7 -15 -10 -11 -5
9 11 -16 36 -36 36 -9 0 -16 4 -16 9 0 5 -7 12 -16 15 -15 6 -15 4 -3 -11 13
-17 13 -17 -6 -3 -11 8 -30 22 -41 33 -12 10 -28 19 -35 21 -8 1 -20 6 -28 10
-10 7 -12 5 -6 -3 9 -15 -77 27 -87 43 -5 7 -8 6 -8 -3 0 -9 -6 -7 -19 7 -19
22 -37 30 -26 12 4 -6 -5 -5 -19 2 -14 6 -26 14 -26 18 0 4 -7 7 -15 7 -8 0
-12 -4 -9 -9 3 -4 0 -8 -5 -8 -6 0 -11 8 -12 18 0 14 -2 14 -9 -3 -8 -18 -9
-18 -10 5 -1 14 -4 19 -7 13 -3 -10 -9 -9 -20 3 -13 13 -17 13 -24 2 -7 -11
-9 -11 -9 1 0 7 -6 11 -15 7 -8 -3 -15 -1 -15 5 0 7 -13 9 -30 7 -17 -3 -34 0
-37 5 -3 6 -1 7 5 3 7 -4 12 -2 12 3 0 15 -13 14 -29 -1 -8 -8 -11 -8 -8 -2 9
16 -49 24 -63 10 -8 -8 -9 -6 -4 7 5 15 3 16 -20 7 -21 -8 -28 -7 -32 5 -5 11
-11 12 -25 4 -15 -8 -19 -6 -19 7 0 12 -3 14 -13 6 -8 -7 -17 -7 -28 1 -9 7
-48 12 -88 12 -54 0 -70 3 -66 13 3 8 0 10 -8 5 -6 -4 -20 -6 -29 -5 -10 2
-18 -3 -18 -10 -1 -7 -7 -2 -15 12 -8 14 -14 20 -15 13 0 -8 -16 -11 -50 -9
-27 1 -47 -1 -44 -6 3 -4 -2 -5 -10 -2 -9 3 -16 11 -16 17 0 6 -6 3 -13 -8
-10 -13 -16 -15 -21 -6 -4 6 -12 9 -17 6 -5 -4 -9 -1 -9 5 0 6 -5 8 -10 5 -6
-4 -8 -10 -6 -14 8 -12 -54 -4 -71 11 -9 7 -14 8 -10 2z m-673 -138 c0 -2 -8
-10 -17 -17 -16 -13 -17 -12 -4 4 13 16 21 21 21 13z m-850 -500 c0 -2 -7 -7
-16 -10 -8 -3 -12 -2 -9 4 6 10 25 14 25 6z m-293 -301 c0 -8 -4 -12 -9 -9 -5
3 -6 10 -3 15 9 13 12 11 12 -6z m-416 -728 c-6 -8 -7 -18 -3 -22 4 -5 1 -5
-6 -1 -10 6 -10 11 -1 22 6 8 14 14 16 14 3 0 0 -6 -6 -13z m4777 -142 c-3 -3
-9 2 -12 12 -6 14 -5 15 5 6 7 -7 10 -15 7 -18z m96 -823 c3 -5 -1 -9 -9 -9
-8 0 -12 4 -9 9 3 4 7 8 9 8 2 0 6 -4 9 -8z m-59 -443 c-4 -5 -12 -9 -18 -8
-9 0 -8 2 1 6 6 2 9 10 6 15 -4 7 -2 8 5 4 6 -4 9 -12 6 -17z m-4688 -574 c0
-8 -4 -12 -9 -9 -5 3 -6 10 -3 15 9 13 12 11 12 -6z m4448 -75 c-3 -5 -11 -10
-16 -10 -6 0 -7 5 -4 10 3 6 11 10 16 10 6 0 7 -4 4 -10z m-4305 -180 c0 -5
-2 -10 -4 -10 -3 0 -8 5 -11 10 -3 6 -1 10 4 10 6 0 11 -4 11 -10z m3721 -533
c-10 -9 -11 -8 -5 6 3 10 9 15 12 12 3 -3 0 -11 -7 -18z m-1286 -577 c3 -5 1
-10 -4 -10 -6 0 -11 5 -11 10 0 6 2 10 4 10 3 0 8 -4 11 -10z"/>
<path d="M579 4103 c-13 -16 -12 -17 4 -4 16 13 21 21 13 21 -2 0 -10 -8 -17
-17z"/>
<path d="M5090 2581 c0 -6 4 -13 10 -16 6 -3 7 1 4 9 -7 18 -14 21 -14 7z"/>
<path d="M526 1087 c3 -10 9 -15 12 -12 3 3 0 11 -7 18 -10 9 -11 8 -5 -6z"/>
<path d="M3759 333 c-13 -16 -12 -17 4 -4 16 13 21 21 13 21 -2 0 -10 -8 -17
-17z"/>
</g>
</svg>
